# xmcd CD database file
#
# Track frame offsets:
#	150
#	21128
#	39073
#	65135
#	88320
#	108000
#
# Disc length: 1844 seconds
#
# Revision: 0
# Processed by: cddbd v1.5.1PL0 Copyright (c) Steve Scherf et al.
# Submitted via: CDex 1.51
#
DISCID=43073206
DTITLE=ひょうたん - ひょうたん
DYEAR=2005
DGENRE=Rock
TTITLE0=僕が笑う向日葵のように下品に
TTITLE1=潮騒
TTITLE2=宇宙の傍らで
TTITLE3=通り雨
TTITLE4=円い月
TTITLE5=月のことだま
EXTD=YEAR: 2005
EXTT0=
EXTT1=
EXTT2=
EXTT3=
EXTT4=
EXTT5=
PLAYORDER=
